<svg width="89" height="89" fill="none" xmlns="http://www.w3.org/2000/svg"><path d="M88.77 51.006l-4.505-6.892c-1.99-3.046-5.369-4.865-9.043-4.865h-11.65v-6.705c0-4.093-3.33-7.422-7.423-7.422h-21.81c-1.224-6.392-6.85-11.24-13.593-11.24-7.636 0-13.848 6.211-13.848 13.846 0 4.801 2.459 9.036 6.18 11.52H1.413a1.412 1.412 0 100 2.827H15.54V44.9H9.889a1.412 1.412 0 100 2.825h5.65v2.825H1.414a1.412 1.412 0 100 2.826H15.54v6.257c-2.49 1.099-4.238 3.584-4.238 6.476v1.394c0 .781.633 1.413 1.413 1.413h12.529c.803 3.457 3.903 6.043 7.601 6.043 3.699 0 6.797-2.586 7.6-6.043h27.18c.805 3.457 3.904 6.043 7.601 6.043 3.698 0 6.797-2.586 7.601-6.043h4.76c.781 0 1.413-.632 1.413-1.413V51.78c0-.275-.08-.544-.23-.773zM9.724 27.728c0-6.077 4.944-11.022 11.022-11.022s11.021 4.945 11.021 11.022S26.824 38.75 20.746 38.75c-6.078 0-11.022-4.945-11.022-11.022zm8.641 25.648h2.825a1.412 1.412 0 100-2.826h-2.825v-2.825h9.89a1.411 1.411 0 100-2.825h-9.89v-2.825H36.73a1.413 1.413 0 100-2.826h-8.317c3.664-2.447 6.095-6.592 6.17-11.302H56.15a4.603 4.603 0 014.596 4.597v26.483H18.383l-.018.001v-5.652zM60.746 66.09H40.574a7.777 7.777 0 00-2.008-4.238h22.18v4.238zm-42.363-4.238h8.74a7.776 7.776 0 00-2.007 4.238h-10.99a4.262 4.262 0 014.257-4.238zm14.462 10.282a4.99 4.99 0 01-4.984-4.984 4.99 4.99 0 014.984-4.984 4.99 4.99 0 014.984 4.984 4.99 4.99 0 01-4.984 4.984zm42.381 0a4.99 4.99 0 01-4.984-4.984 4.99 4.99 0 014.984-4.984 4.99 4.99 0 014.984 4.984 4.99 4.99 0 01-4.984 4.984zm10.948-6.044h-3.218c-.52-3.805-3.784-6.75-7.73-6.75-3.945 0-7.209 2.945-7.73 6.75h-3.925V42.075h11.651c2.715 0 5.212 1.34 6.679 3.583l4.273 6.541V66.09z" fill="#fff"/><path d="M77.537 67.15a2.311 2.311 0 11-4.622 0 2.311 2.311 0 014.622 0zm-42.381 0a2.311 2.311 0 11-4.622 0 2.311 2.311 0 014.622 0zM22.603 27.728v-6.18a1.412 1.412 0 10-2.825 0v5.72l-2.883 3.955a1.41 1.41 0 001.14 2.245 1.41 1.41 0 001.142-.582l3.155-4.326c.176-.24.271-.532.271-.832zM74.75 43.487h-2.702c-.781 0-1.413.632-1.413 1.413v9.889c0 .78.632 1.413 1.413 1.413h9.507c.886 0 1.68-.459 2.124-1.224a2.425 2.425 0 00.007-2.446l-3.299-5.774a6.508 6.508 0 00-5.637-3.27zm-1.29 9.89v-7.064h1.29c1.314 0 2.533.707 3.184 1.847l2.98 5.217h-7.453z" fill="#fff"/></svg>