<svg width="65" height="65" fill="none" xmlns="http://www.w3.org/2000/svg"><g clip-path="url(#clip0)" fill="#fff"><path d="M59.583 24.375H5.417c-.748 0-1.354.607-1.354 1.354v37.917c0 .747.606 1.354 1.354 1.354h54.166c.748 0 1.355-.607 1.355-1.354V25.729c0-.747-.607-1.354-1.355-1.354zM58.23 62.292H6.771V27.083h51.458v35.209z"/><path d="M62.292 13.542H2.708c-.747 0-1.354.607-1.354 1.354v10.833c0 .748.607 1.355 1.354 1.355h59.584c.747 0 1.354-.607 1.354-1.355V14.896c0-.748-.607-1.354-1.354-1.354zm-1.355 10.833H4.063V16.25h56.876v8.125z"/><path d="M32.5 13.542c-.747 0-1.354.607-1.354 1.354v48.75a1.355 1.355 0 002.708 0v-48.75c0-.748-.606-1.354-1.354-1.354z"/><path d="M33.884 14.576C32.492 8.046 24.188 1.04 18.655.103a5.422 5.422 0 00-6.468 5.314c0 1.248.437 2.467 1.227 3.434.011.008.02.022.027.032 4.022 5.138 17.41 7.107 18.932 7.316a1.353 1.353 0 001.511-1.622zM15.538 7.164a.91.91 0 00-.079-.095 2.668 2.668 0 01-.563-1.652 2.711 2.711 0 013.271-2.652c4.06.688 10.19 5.601 12.391 10.395-4.715-.87-12.675-2.898-15.02-5.996z"/><path d="M47.396 0c-.36 0-.71.035-1.013.095-5.568.945-13.872 7.951-15.264 14.481a1.358 1.358 0 001.506 1.625c1.522-.208 14.909-2.177 18.93-7.315.012-.01.02-.024.03-.035a5.44 5.44 0 001.227-3.434A5.422 5.422 0 0047.397 0zm2.145 7.071c-.027.03-.054.06-.079.095-2.342 3.093-10.302 5.127-15.02 5.996C36.646 8.363 42.778 3.454 46.87 2.76a2.71 2.71 0 012.67 4.312z"/></g><defs><clipPath id="clip0"><path fill="#fff" d="M0 0h65v65H0z"/></clipPath></defs></svg>