<svg width="71" height="71" fill="none" xmlns="http://www.w3.org/2000/svg"><g clip-path="url(#clip0)" fill="#fff"><path d="M63.604 53.25H54.73a1.48 1.48 0 010-2.958h8.875a4.443 4.443 0 004.438-4.438V25.146a4.443 4.443 0 00-4.438-4.438H7.396a4.443 4.443 0 00-4.438 4.438v20.708a4.443 4.443 0 004.438 4.438h8.875a1.48 1.48 0 010 2.958H7.396C3.316 53.25 0 49.93 0 45.854V25.146c0-4.077 3.316-7.396 7.396-7.396h56.208c4.08 0 7.396 3.32 7.396 7.396v20.708c0 4.077-3.316 7.396-7.396 7.396zm-20.708 8.875h-17.75a1.48 1.48 0 010-2.958h17.75a1.48 1.48 0 010 2.958zm0-5.917h-17.75a1.48 1.48 0 010-2.958h17.75a1.48 1.48 0 010 2.958z"/><path d="M31.063 50.292h-5.917a1.48 1.48 0 010-2.959h5.916a1.48 1.48 0 010 2.959zM54.73 20.708a1.48 1.48 0 01-1.48-1.479V7.396a4.443 4.443 0 00-4.438-4.438H22.189a4.443 4.443 0 00-4.438 4.438v11.833a1.48 1.48 0 01-2.958 0V7.396C14.792 3.319 18.108 0 22.188 0h26.625c4.079 0 7.395 3.32 7.395 7.396v11.833a1.48 1.48 0 01-1.479 1.48z"/><path d="M48.813 71H22.186c-4.08 0-7.395-3.32-7.395-7.396V39.938c0-.817.662-1.48 1.479-1.48h38.458c.817 0 1.48.663 1.48 1.48v23.666c0 4.077-3.317 7.396-7.397 7.396zM17.75 41.417v22.187a4.443 4.443 0 004.438 4.438h26.625a4.443 4.443 0 004.437-4.438V41.417h-35.5z"/></g><defs><clipPath id="clip0"><path fill="#fff" d="M0 0h71v71H0z"/></clipPath></defs></svg>