<svg width="63" height="63" fill="none" xmlns="http://www.w3.org/2000/svg"><g clip-path="url(#clip0)" fill="#fff"><path d="M60.136 31.764V22.91c0-3.003-2.329-5.445-5.271-5.681L46.642 2.866A5.658 5.658 0 0043.177.194a5.627 5.627 0 00-4.31.577L10.68 17.183H5.73A5.733 5.733 0 000 22.91v34.363A5.733 5.733 0 005.728 63H54.41a5.733 5.733 0 005.727-5.727v-8.855C61.8 47.825 63 46.251 63 44.387v-8.591c0-1.864-1.2-3.439-2.864-4.032zm-8.599-14.581H39.059l9.36-5.45 3.12 5.45zm-4.542-7.935l-13.628 7.935h-5.653L45.582 6.78l1.413 2.468zm-6.686-6.002a2.769 2.769 0 012.127-.286 2.807 2.807 0 011.72 1.33l.003.005-22.136 12.888H16.37L40.31 3.246zm16.964 54.027a2.867 2.867 0 01-2.864 2.863H5.73a2.867 2.867 0 01-2.864-2.863V22.91a2.867 2.867 0 012.863-2.864H54.41a2.867 2.867 0 012.864 2.864v8.59h-8.591c-4.737 0-8.59 3.854-8.59 8.591 0 4.737 3.853 8.591 8.59 8.591h8.59v8.59zm2.863-12.886c0 .79-.641 1.431-1.431 1.431H48.681a5.733 5.733 0 01-5.727-5.727 5.733 5.733 0 015.727-5.727h10.023c.79 0 1.431.642 1.431 1.432v8.59z"/><path d="M48.681 37.228a2.867 2.867 0 00-2.863 2.863 2.867 2.867 0 002.863 2.864 2.867 2.867 0 002.864-2.864 2.867 2.867 0 00-2.864-2.863z"/></g><defs><clipPath id="clip0"><path fill="#fff" d="M0 0h63v63H0z"/></clipPath></defs></svg>