<svg width="99" height="27" fill="none" xmlns="http://www.w3.org/2000/svg"><path fill-rule="evenodd" clip-rule="evenodd" d="M66.857 27h7.035l3.023-8.493 3.143-2.603 2.476 7.68C83.299 25.958 84.088 27 85.807 27h5.386l-5.557-15.072L99 0h-8.63l-8.113 8.493c-.945.989-1.9 1.962-2.859 3.124h-.082L83.367 0h-7.036l-9.474 27zM66.554.001h6.138L71.24 4.46c-.456 1.4-1.615 2.07-4.168 2.07H51.645l1.452-4.458C53.553.67 54.712 0 57.265 0l9.289.001zm-12.87 10.234c4.434 0 10.994 0 15.428.002l-1.453 4.457c-.456 1.402-1.614 2.071-4.168 2.071-4.433 0-10.993 0-15.427-.002l1.452-4.457c.456-1.401 1.615-2.071 4.169-2.071zm11.67 10.236l-15.426-.001c-2.554 0-3.712.67-4.168 2.07l-1.452 4.458L59.735 27c2.553 0 3.712-.67 4.168-2.071l1.452-4.458zM34.956 6.503l3.776.002c3.217 0 2.483 3.889.855 7.679-1.435 3.34-3.977 6.288-7.01 6.288l-6.295-.001c-2.51 0-3.668.67-4.157 2.07L20.572 27l4.616.001 4.512-.036c4.001-.032 7.277-.312 11.107-3.644 4.049-3.52 8.769-12.664 7.96-17.953C48.132 1.223 45.832.002 40.26.002L30.107 0l-5.912 16.746 3.756.005c2.235.002 3.357.03 4.547-3.068l2.458-7.18zm-17.357.023l-2.84.001C9.07 6.53 4.195 20.474 10.922 20.472l4.322-.001c2.492 0 4.343.88 3.523 3.256L17.638 27h-4.583l-3.729-.036c-4.77-.046-7.848-2.322-8.956-5.778-1.2-3.74.494-11.539 5.408-16.535C8.63 1.753 12.58.001 17.644.001L27 0l-1.463 4.086c-.944 2.64-2.875 2.444-3.977 2.443l-3.96-.003z" fill="#fff"/></svg>