<svg width="116" height="116" fill="none" xmlns="http://www.w3.org/2000/svg"><path fill-rule="evenodd" clip-rule="evenodd" d="M42.921 46.817H16.108l-.956-1.103h-3.07l.626-2.389h31.114l-.9 3.492zm17.588 4.061v.037h-6.524c-.368 1.231-.68 2.481-.993 3.712l6.543.02-1.746 6.726v.036h-6.524c-.35 1.25-.662 2.499-.993 3.75l6.561.017-1.746 6.8v.037H40.495l.845-3.272 12.976-.018.33-1.158-13.011-.019c.33-1.268.662-2.554.992-3.84h6.267l.313-1.159-6.267-.017.974-3.75h12.974c.13-.385.203-.808.313-1.212l-12.975-.018c.294-1.25.661-2.481.956-3.73h6.266l.294-1.122-6.267-.018.956-3.731h12.975c.129-.404.203-.808.313-1.213l-12.975-.018.956-3.712h14.59l-1.782 6.872zm15.602 4.356l.019.019.772-1.434h10.75l.295-1.139-10.384-.037 2.04-3.675 9.318-.038c.11-.404.202-.808.294-1.212l-8.896-.019 2.059-3.694h8.95l-7.186 27.99h-6.891c.294-1.085.551-2.188.845-3.29h5.733l.295-1.14-5.716-.019.9-3.822 5.79-.018c.129-.367.22-.772.312-1.159l-5.716-.017.938-3.75h5.753c.11-.404.202-.808.33-1.212l-5.862-.019c.129-.661.294-1.323.423-1.966L72.95 71.975l-2.59.019v-3.272h2.811c.203-.385.386-.772.588-1.158l-3.399-.018v-3.84h5.347c.203-.368.387-.773.59-1.16l-5.936-.017v-3.75h7.847c.202-.404.423-.808.606-1.212l-8.453-.018c0-.699.017-1.397 0-2.077l-4.3 16.522h-6.93l.844-3.272h5.256c.11-.367.202-.753.313-1.139l-5.274-.019.992-3.858h5.256c.091-.387.183-.773.293-1.16l-5.237-.017c.312-1.25.662-2.5.973-3.767h5.238c.129-.387.202-.81.313-1.195l-5.238-.019.956-3.73h10.77l.017-1.14-10.494-.018.956-3.694h9.263v-1.231l-8.932-.02.956-3.711h9.097l.662 11.23zm34.771-7.535l-1.286 4.944-7.131.018c.147-.57.294-1.139.46-1.709l-2.316-.018c-.349 1.214-.643 2.463-.956 3.694l5.091.037 3.51 3.216-2.757 10.824-5.733 3.29h-6.837l-4.392-3.29-.018-.018h15.474l.313-1.12-15.511-.02 1.01-3.822 7.499-.018-.35 1.433 2.28.019.385-1.452h5.643c.11-.386.239-.754.331-1.159l-5.66-.017c.055-.368.201-.717.257-1.103l-5.789-.018c-.827-.883-1.709-1.745-2.554-2.628l14.683-.018c.11-.404.221-.81.349-1.195l-15.492-.019c.307-1.24.626-2.477.956-3.711l6.138-.02c.11-.367.183-.771.331-1.138l-6.175-.019c.293-1.25.662-2.462.955-3.694l15.474-.018.313-1.232-15.492-.018 6.267-3.694h6.799l3.931 3.693zm-69.284 4.209H20.5l-1.397-1.618h-8.196l.514-1.984h31.114l-.937 3.602zm-1.268 4.943H24.763l-1.782-2.076H9.767l.386-1.526h31.114l-.937 3.602zm-1.232 4.724H28.843l-2.113-2.462H8.647l.257-1.03h31.132l-.938 3.492zM37.793 66.5H33.09l-2.518-2.922H7.507l.202-.882 19.59-.019h11.487l-.993 3.823zm-1.102 4.226l-2.188-2.573-28.19-.017.11-.534 31.095.019-.827 3.105zm-.515 1.93l-31.058.02.11-.498h31.114l-.166.478z" fill="#fff"/></svg>