<svg width="45" height="45" fill="none" xmlns="http://www.w3.org/2000/svg"><path d="M28.128 2.662l-2.247 1.67s-9.64 7.17-12.848 9.563c-2.003 1.493-3.152 2.602-3.837 3.768-.686 1.167-.756 2.326-.756 3.3l-.002 14.07c0 2.392 1.99 4.342 4.383 4.342h23.744v-22.5h-8.437V2.662zm-2.813 5.597v8.616h-.003l.003 1.258v1.555h.003l.016 7.259-13.532 9.24a1.49 1.49 0 01-.552-1.151v-.003l.003-14.07c0-.896.007-1.262.368-1.877.36-.614 1.223-1.542 3.092-2.936 2.643-1.971 8.227-6.124 10.602-7.89zm-2.892 8.624c-.646.055-1.377.432-1.944 1.066-.91 1.014-1.056 2.3-.327 2.873.728.574 2.053.216 2.963-.8.91-1.014 1.056-2.303.327-2.875-.273-.214-.63-.296-1.019-.264zm8.515 2.805h2.815v16.875H12.82a1.57 1.57 0 01-.84-.261l18.956-6.77v-9.844z" fill="#fff"/></svg>