<svg width="56" height="47" fill="none" xmlns="http://www.w3.org/2000/svg"><path d="M5.396 7.833C2.424 7.833 0 9.869 0 12.364v24.233c0 2.494 2.424 4.53 5.396 4.53h45.208c2.971 0 5.396-2.036 5.396-4.53V12.362c0-2.494-2.425-4.529-5.396-4.529H5.396zm0 3.917h45.208c.447 0 .73.237.73.612v24.235c0 .374-.283.611-.73.611H5.396c-.447 0-.73-.237-.73-.611V12.361c0-.375.283-.612.73-.612zm16.77 3.917c-5.796 0-10.5 3.947-10.5 8.812 0 4.866 4.704 8.813 10.5 8.813 2.143 0 4.175-.543 5.834-1.469 1.659.926 3.691 1.469 5.833 1.469 5.797 0 10.5-3.947 10.5-8.813 0-4.865-4.703-8.812-10.5-8.812-2.142 0-4.174.543-5.833 1.469-1.659-.926-3.691-1.47-5.833-1.47zm11.667 3.917c3.218 0 5.834 2.195 5.834 4.895 0 2.7-2.616 4.896-5.834 4.896a6.703 6.703 0 01-2.625-.55c.875-1.286 1.459-2.755 1.459-4.346 0-1.59-.584-3.06-1.459-4.345a6.703 6.703 0 012.625-.55z" fill="#fff"/></svg>