<svg width="27" height="27" fill="none" xmlns="http://www.w3.org/2000/svg"><g clip-path="url(#clip0)"><path d="M19.062 27a8.027 8.027 0 01-3.415-.762c-.753.124-1.4.182-2.014.182-7.14 0-12.947-5.738-12.947-12.79 0-.688.068-1.402.207-2.174A7.759 7.759 0 010 7.842C0 3.518 3.562 0 7.94 0a7.99 7.99 0 013.874.998 14.19 14.19 0 011.819-.102c3.45 0 6.688 1.322 9.119 3.72a12.576 12.576 0 013.773 9.014c0 .903-.061 1.67-.192 2.379a7.65 7.65 0 01.667 3.15C27 23.481 23.439 27 19.062 27zm-3.082-2.963l.324.172a5.89 5.89 0 002.758.682c3.214 0 5.829-2.572 5.829-5.733a5.56 5.56 0 00-.602-2.537l-.172-.339.083-.37c.147-.655.216-1.38.216-2.282 0-5.858-4.837-10.624-10.783-10.624-.742 0-1.332.041-1.856.13l-.394.066-.339-.21a5.874 5.874 0 00-3.104-.883c-3.215 0-5.83 2.572-5.83 5.733 0 1.02.275 2.02.798 2.894l.21.352-.083.402c-.162.783-.24 1.482-.24 2.14 0 5.889 4.862 10.68 10.838 10.68.577 0 1.208-.066 1.986-.207l.361-.066zm4.323-7.644c0-.758-.15-1.41-.449-1.938a3.787 3.787 0 00-1.247-1.31c-.52-.335-1.157-.623-1.893-.859a26.48 26.48 0 00-2.447-.635 42.035 42.035 0 01-1.531-.373c-.3-.083-.6-.2-.89-.344a2.027 2.027 0 01-.662-.497c-.148-.18-.268-.39-.268-.64 0-.41.272-.754.735-1.055.478-.312 1.123-.442 1.916-.442.853 0 1.477.115 1.848.396.383.288.717.7.993 1.221.238.408.453.693.66.875.223.195.545.282.954.282.45 0 .834-.146 1.136-.46.302-.31.512-.668.512-1.061 0-.408-.174-.83-.404-1.254-.228-.42-.588-.824-1.076-1.203-.482-.375-1.098-.68-1.826-.904-.726-.226-1.596-.338-2.585-.338-1.234 0-2.328.169-3.245.507-.93.342-1.654.842-2.147 1.482-.5.646-.793 1.395-.793 2.226 0 .873.28 1.613.755 2.205.469.581 1.108 1.046 1.903 1.382.775.327 1.75.617 2.898.862.845.177 1.528.345 2.031.5.48.15.88.367 1.182.648.286.266.443.608.443 1.042 0 .55-.286 1-.837 1.374-.563.382-1.312.533-2.227.533-.666 0-1.207-.052-1.608-.242-.399-.186-.712-.428-.927-.712a5.485 5.485 0 01-.638-1.12c-.175-.41-.392-.729-.648-.943a1.49 1.49 0 00-.975-.358c-.462 0-.85.165-1.155.447a1.38 1.38 0 00-.46 1.04c0 .644.237 1.313.71 1.986a5.16 5.16 0 001.82 1.607c1.039.55 2.372.826 3.962.826 1.323 0 2.487-.203 3.457-.604.98-.403 1.736-.974 2.248-1.694a4.156 4.156 0 00.775-2.455z" fill="#fff"/></g><defs><clipPath id="clip0"><path fill="#fff" d="M0 0h27v27H0z"/></clipPath></defs></svg>