<svg width="27" height="27" fill="none" xmlns="http://www.w3.org/2000/svg"><g clip-path="url(#clip0)" fill="#fff"><path d="M25.965 5.513c-1.036-1.425-2.85-2.712-5.108-3.623C18.61.984 16.003.484 13.513.48c-2.49-.006-5.101.49-7.35 1.388-2.263.904-4.081 2.185-5.121 3.608C.043 6.84-.245 8.314.209 9.733a2.231 2.231 0 002.14 1.542l3.372.003h.003c.672 0 1.304-.294 1.734-.808a2.216 2.216 0 00.47-1.879l-.177-.69c.982-.468 3.209-1.374 5.751-1.36 2.542.013 4.766.919 5.75 1.388l-.18.686a2.216 2.216 0 00.465 1.882c.428.515 1.06.812 1.735.813l3.372.003h.004a2.23 2.23 0 002.139-1.536c.458-1.42.174-2.893-.822-4.264zm-.712 3.769a.633.633 0 01-.606.42h-.001l-3.373-.004a.646.646 0 01-.497-.232.603.603 0 01-.136-.477l.335-1.276a.806.806 0 00-.373-.9c-.13-.076-3.23-1.863-7.091-1.883h-.064c-3.836 0-6.915 1.779-7.044 1.855a.806.806 0 00-.373.896l.329 1.278a.604.604 0 01-.138.478.646.646 0 01-.498.23L2.35 9.664a.633.633 0 01-.606-.422c-.295-.922-.093-1.87.599-2.816 1.838-2.514 6.52-4.335 11.143-4.335h.025c4.626.007 9.316 1.844 11.151 4.37.69.95.89 1.899.591 2.82z"/><path d="M21.125 14.755l-2.515-2.64a.806.806 0 00-.583-.25H16.4v-1.098a.806.806 0 10-1.61 0v1.098h-2.58v-1.098a.806.806 0 10-1.612 0v1.098H8.974c-.22 0-.432.09-.584.25l-2.515 2.64A11.038 11.038 0 002.818 22.4v3.314c0 .445.36.806.805.806h19.754c.445 0 .806-.36.806-.806V22.4c0-2.86-1.086-5.574-3.058-7.645zM4.43 24.91V22.4c0-2.443.928-4.763 2.613-6.532l2.277-2.391h8.362l2.277 2.39a9.434 9.434 0 012.614 6.534v2.509H4.428z"/><path d="M13.5 15.142a4.221 4.221 0 00-4.216 4.217 4.221 4.221 0 004.216 4.216 4.221 4.221 0 004.217-4.216 4.221 4.221 0 00-4.217-4.217zm0 6.822a2.608 2.608 0 01-2.605-2.605 2.608 2.608 0 012.605-2.606 2.608 2.608 0 012.605 2.606 2.608 2.608 0 01-2.605 2.605z"/></g><defs><clipPath id="clip0"><path fill="#fff" d="M0 0h27v27H0z"/></clipPath></defs></svg>