<svg width="51" height="51" fill="none" xmlns="http://www.w3.org/2000/svg"><path d="M49.687 8.975H1.313C.587 8.975 0 9.562 0 10.288v30.425c0 .725.587 1.313 1.313 1.313h48.374c.726 0 1.313-.588 1.313-1.313V10.288c0-.726-.587-1.313-1.313-1.313zM3.95 18.962h5.443c.734.028 1.325.262 1.53 1.047l1.183 5.693c-1.163-2.978-3.966-5.456-8.201-6.481l.045-.259zm6.586 12.985L7.391 21.205c2.26 1.447 4.185 3.742 4.863 5.34l.367 1.326 3.438-8.785h3.72l-5.528 12.859-3.716.002zm11.979.01h-3.51l2.194-12.884h3.513l-2.197 12.883zm6.11.193c-1.575-.017-3.09-.328-3.912-.689l.494-2.883.452.205c1.153.481 1.9.676 3.306.676 1.008 0 2.09-.394 2.1-1.257.006-.565-.453-.967-1.82-1.6-1.333-.615-3.098-1.648-3.076-3.498.02-2.505 2.464-4.252 5.934-4.252 1.36 0 2.45.28 3.146.541l-.474 2.793-.317-.149a6.48 6.48 0 00-2.628-.493c-1.374 0-2.012.572-2.012 1.108-.007.603.744 1 1.972 1.598 2.026.92 2.962 2.035 2.95 3.5-.028 2.673-2.423 4.4-6.116 4.4zm15.215-.188s-.321-1.481-.428-1.93l-4.496-.006c-.137.347-.738 1.936-.738 1.936H34.49l5.213-11.807c.37-.839.998-1.069 1.84-1.069h2.712l2.841 12.875H43.84z" fill="#fff"/><path d="M42.026 23.672l-.236-1.111c-.18.485-.487 1.264-.467 1.23 0 0-1.11 2.86-1.399 3.6h2.916l-.814-3.72z" fill="#fff"/></svg>