<svg width="27" height="27" fill="none" xmlns="http://www.w3.org/2000/svg"><path d="M22.988 3.92A13.381 13.381 0 0013.486 0a13.45 13.45 0 00-9.515 3.918C1.413 6.448.003 9.81 0 13.375v.007c0 2.157.567 4.332 1.643 6.319L.037 27l7.383-1.68c1.87.943 3.957 1.44 6.061 1.44h.006c3.582 0 6.962-1.39 9.515-3.917 2.56-2.533 3.97-5.892 3.972-9.458.001-3.54-1.414-6.902-3.986-9.464zm-9.502 20.733h-.004a11.39 11.39 0 01-5.414-1.372l-.35-.19-4.91 1.117 1.067-4.846-.205-.355c-1.023-1.763-1.563-3.709-1.563-5.628.004-6.212 5.108-11.272 11.379-11.272a11.288 11.288 0 018.015 3.307c2.171 2.163 3.367 4.994 3.365 7.97-.002 6.214-5.107 11.27-11.38 11.27z" fill="#fff"/><path d="M9.817 7.481h-.592c-.205 0-.54.077-.822.385-.283.307-1.08 1.051-1.08 2.564 0 1.513 1.106 2.975 1.26 3.18.154.205 2.134 3.409 5.27 4.641 2.606 1.024 3.136.82 3.701.77.566-.052 1.826-.744 2.083-1.462.257-.718.257-1.334.18-1.462-.078-.128-.283-.205-.592-.359-.308-.154-1.82-.91-2.103-1.013-.283-.102-.488-.153-.694.154-.206.308-.812 1.019-.992 1.224-.18.205-.36.231-.668.077-.309-.154-1.292-.484-2.47-1.532-.918-.815-1.555-1.854-1.735-2.162-.18-.308-.019-.474.136-.628.139-.137.326-.325.48-.505.154-.18.198-.307.301-.513.103-.205.051-.384-.026-.538-.077-.154-.669-1.674-.943-2.283-.231-.512-.475-.529-.694-.538z" fill="#fff"/></svg>